PathFileType	4	(X/Y/Z)	C:\Users\chris\Documents\GitHub\baseballds\vids\pitch4_Sports2D\pitch4_Sports2D_m_person00.trc
DataRate	CameraRate	NumFrames	NumMarkers	Units	OrigDataRate	OrigDataStartFrame	OrigNumFrames
30	30	8	22	m	30	178	238
Frame#	Time	Hip			RHip			RKnee			RAnkle			RBigToe			RSmallToe			RHeel			LHip			LKnee			LAnkle			LBigToe			LSmallToe			LHeel			Neck			Head			Nose			RShoulder			RElbow			RWrist			LShoulder			LElbow			LWrist		
		X1	Y1	Z1	X2	Y2	Z2	X3	Y3	Z3	X4	Y4	Z4	X5	Y5	Z5	X6	Y6	Z6	X7	Y7	Z7	X8	Y8	Z8	X9	Y9	Z9	X10	Y10	Z10	X11	Y11	Z11	X12	Y12	Z12	X13	Y13	Z13	X14	Y14	Z14	X15	Y15	Z15	X16	Y16	Z16	X17	Y17	Z17	X18	Y18	Z18	X19	Y19	Z19	X20	Y20	Z20	X21	Y21	Z21	X22	Y22	Z22
178	5.933333333333334	0.8921603418860126	0.7945296677653004	0.0	0.7940523699570313	0.7774985533694436	0.0	0.6617568886475216	0.36166818369654435	0.0	0.44519196628323116	0.012206914297623626	0.0	0.6214945881630958	-0.136402761298077	0.0	0.5639327156377838	-0.13637061517080826	0.0	0.385379184243733	-0.025658797927657188	0.0	0.9672950977972377	0.7392608861282598	0.0	1.1763055637449322	0.43008478041941356	0.0	0.92791444429696	0.09910609373811252	0.0	1.083268189479978	-0.04714480762215989	0.0	1.0801467180099957	-0.03235419698011406	0.0	0.855797095507864	0.06059608642162423	0.0	1.1240613223930955	1.317915594766997	0.0	1.287816257233429	1.5157162789085263	0.0	1.3344503633556357	1.345058260969149	0.0	0.966903794466589	1.2742673596075593	0.0	0.9867139113623751	0.9676716349107827	0.0	1.2745524548434979	1.0330040852996336	0.0	1.1719462850029396	1.178506610987742	0.0	1.1509439801219392	0.8745327462185531	0.0	1.2874099811006248	0.9431107472300678	0.0
179	5.966666666666667	0.8956247092160393	0.8012805413744624	0.0	0.7975072311340449	0.7811769829285997	0.0	0.6624245750994466	0.3619968774732478	0.0	0.44354014370786093	0.013171365526938327	0.0	0.622669693377318	-0.13496504413366373	0.0	0.572823087959649	-0.13850257516443826	0.0	0.3852994785445715	-0.021982117954768923	0.0	0.9777282340297492	0.749809219573567	0.0	1.2414461038262756	0.4884673638635108	0.0	1.0347912521456597	0.12286193085344899	0.0	1.2142507994407963	-0.011417864138602032	0.0	1.2063515347772311	-0.0010255381211336757	0.0	0.9613684922946437	0.07261641421084099	0.0	1.1193067213581598	1.320837702182971	0.0	1.2851994447949915	1.5180220271126943	0.0	1.3322236997179941	1.3467550491005145	0.0	0.9582975473269215	1.2836197705481527	0.0	0.9994536577743063	0.9810190572240342	0.0	1.2837168526651122	1.0721822414029503	0.0	1.1695437059812541	1.1827940033729623	0.0	1.1684636897714415	0.8770169020835925	0.0	1.314556769832679	0.9677395619684994	0.0
180	6.0	0.9023492242109644	0.8072282141939898	0.0	0.8083129944797919	0.7889726382466439	0.0	0.6641146020101472	0.3623080506433406	0.0	0.44077427207496794	0.014037813096454993	0.0	0.6270397991473512	-0.13121898229970563	0.0	0.5865821406697707	-0.1398482370635739	0.0	0.38465207402186036	-0.019269079253902564	0.0	0.993661493432905	0.7623810010796329	0.0	1.2986334429239839	0.564347032225842	0.0	1.1366702444928818	0.17278341228456143	0.0	1.3442291239317676	0.04976473170826958	0.0	1.3316232313980139	0.0585955100867421	0.0	1.0636766866315102	0.10923934020272384	0.0	1.1157490506873056	1.3199342525608875	0.0	1.282211132693847	1.5178047668961778	0.0	1.3296979203840924	1.3441051734050722	0.0	0.9527614840898954	1.289269023063841	0.0	1.014528595060679	0.9901975019616581	0.0	1.2868500451128004	1.1087784625134645	0.0	1.1670758724056358	1.184695424756556	0.0	1.1824932763234985	0.8845660698864485	0.0	1.345216329273683	0.9995941141286727	0.0
181	6.033333333333333	0.9108174130255864	0.8118182950575574	0.0	0.8222043120198412	0.79564976365727	0.0	0.6654784792451871	0.36185046919153924	0.0	0.43814496936788494	0.014600863878185114	0.0	0.6306257205132678	-0.1259897181853673	0.0	0.5959258297980848	-0.1387416539297242	0.0	0.3825945544163368	-0.020471123957999666	0.0	1.0078057475361433	0.7724766691845484	0.0	1.3421611826874595	0.6528034868477224	0.0	1.2224902534533852	0.23999547105358218	0.0	1.4525167421329002	0.13515209117886254	0.0	1.4377004156549489	0.14065853373095671	0.0	1.1504172152163434	0.16494529573347844	0.0	1.1130442398291118	1.3161722394660988	0.0	1.2803627400928803	1.5149395104983312	0.0	1.3260950112051453	1.3388054697699212	0.0	0.9477530071909314	1.2903928960209825	0.0	1.0315341877064115	0.9985779965288937	0.0	1.2853841740724803	1.1406943956239335	0.0	1.1675623614707598	1.1854246002196756	0.0	1.2023047844538368	0.8961028780123845	0.0	1.372725922545719	1.0271092497533723	0.0
182	6.066666666666666	0.918460354102874	0.8142960560860373	0.0	0.8335404007027752	0.7956856856711125	0.0	0.6641855106610373	0.3588177603724261	0.0	0.4373573427971242	0.014888736954167658	0.0	0.6314141787190726	-0.12184388268906267	0.0	0.5978949538060804	-0.1355480905570537	0.0	0.38077365684475284	-0.024883035642573496	0.0	1.0145745755483409	0.7769938012969657	0.0	1.3686734144276107	0.7432814741446895	0.0	1.2877472231132998	0.3179707173159903	0.0	1.5265995729047623	0.2376046193085257	0.0	1.5123181991254042	0.23561877272652546	0.0	1.218237883856021	0.2339026110161903	0.0	1.1124946072111983	1.3129921335795276	0.0	1.280810846999733	1.511240966630679	0.0	1.3229767611881398	1.3326949304239004	0.0	0.9435944528225019	1.2907299111854789	0.0	1.0504737716829862	1.0098811032511592	0.0	1.2835001256788108	1.1669754094836422	0.0	1.171052719995637	1.186393456525208	0.0	1.2345044563919094	0.9078335287516682	0.0	1.39525282465409	1.0437148763945239	0.0
183	6.1	0.9248952674173732	0.8141776537614965	0.0	0.8418930616976813	0.7891854724959655	0.0	0.6606051420221399	0.3534996363016781	0.0	0.4390717783601463	0.015688730295426903	0.0	0.6292100765289855	-0.12023520978940624	0.0	0.5952659397323653	-0.13302079768729888	0.0	0.3806673099457137	-0.02881359814074877	0.0	1.0172469904207013	0.7770535159725659	0.0	1.3776098397282721	0.8240808243845585	0.0	1.332151677066924	0.4020785247097726	0.0	1.5670954160563826	0.3425809874457683	0.0	1.5539616083704626	0.33220494589888094	0.0	1.269865847833871	0.3099850020129369	0.0	1.1135524503891798	1.312417723080822	0.0	1.2834725392927098	1.5073622321638254	0.0	1.3219720723580317	1.3273185445303786	0.0	0.939643036818594	1.2929740541479915	0.0	1.066294458891231	1.0235253901782049	0.0	1.285202550039666	1.1866644536929774	0.0	1.175017534672076	1.187906722686617	0.0	1.2696663270058504	0.9206634175628005	0.0	1.410328124646306	1.0592203672826968	0.0
184	6.133333333333333	0.9297435095511262	0.8124007165126096	0.0	0.8497874045684366	0.7815667304717949	0.0	0.6589126900313425	0.35010344400258503	0.0	0.44204296113063046	0.0171851063871769	0.0	0.6257106141104283	-0.12056242534967118	0.0	0.5919954231710153	-0.13389043103850568	0.0	0.38228583312727493	-0.02997386991391314	0.0	1.021373430845727	0.7770995064746441	0.0	1.3731934502814647	0.889563621367134	0.0	1.3549756844597072	0.48046832727653954	0.0	1.5799021837626477	0.43224346285901594	0.0	1.5656089826329014	0.4162732739367399	0.0	1.302756630546263	0.38126890355443616	0.0	1.112725825964124	1.313251398524842	0.0	1.2874305923998304	1.5026543542688886	0.0	1.3215888787411896	1.3225680610525354	0.0	0.9352096603861231	1.2953376816077031	0.0	1.0742799655828874	1.0347420865001205	0.0	1.290675523266955	1.2020575242657037	0.0	1.1769215504536539	1.1902131565293534	0.0	1.289998213909932	0.940191504335945	0.0	1.410423033586867	1.0907785417428815	0.0
185	6.166666666666667	0.9328850344048982	0.8104566800887391	0.0	0.8580334730031258	0.7764488103367785	0.0	0.6627360649044939	0.35231294882070274	0.0	0.4451938562530138	0.019509449405130695	0.0	0.6247138218219128	-0.12222001678210544	0.0	0.5917772084357856	-0.13755717934691844	0.0	0.38527696669942985	-0.028755424794762282	0.0	1.0282646565620714	0.7788684365632962	0.0	1.3628877031799007	0.9388678931875167	0.0	1.3560982958218486	0.5382216120329129	0.0	1.5718935318131333	0.4949219450953676	0.0	1.5543478657915435	0.4754889239786887	0.0	1.3109623762216245	0.4344778138731842	0.0	1.1089836772028228	1.3136016144575695	0.0	1.2908772712708196	1.4979630995176427	0.0	1.3201344386629077	1.3181273371957234	0.0	0.9320318007376901	1.2952138930233719	0.0	1.0767443688383806	1.0402929275827535	0.0	1.2965528749243656	1.216255829790208	0.0	1.1759993923709526	1.1922471800662704	0.0	1.2890136201718043	0.9645462673834361	0.0	1.3938480893936256	1.1346850532163246	0.0
